<svg xmlns:svgjs="http://svgjs.com/svgjs" xmlns:xlink="http://www.w3.org/1999/xlink" height="1000" id="SvgjsSvg1089" overflow="visible"
    version="1.1" width="1000"
    xmlns="http://www.w3.org/2000/svg">
    <defs id="SvgjsDefs1068">
        <linearGradient gradientUnits="userSpaceOnUse" id="SvgjsLinearGradient_dUD1rT3v"
            x1="4.2632564145606005e-14" x2="99.99999999999999" y1="99.99999999999997"
            y2="-3.5527136788005e-15">
            <stop id="SvgjsStop1071" offset="0.05" stop-color="#6488de"></stop>
            <stop id="SvgjsStop1072" offset="0.95" stop-color="#2248a0"></stop>
        </linearGradient>
    </defs>
    <g id="SvgjsG1069" opacity="1" transform="scale(1.1353937018973994)">
        <g class="rfc8TgX76" fill="url(#SvgjsLinearGradient_dUD1rT3v)"
            id="SvgjsG1073"
            light-content="false" transform="translate(7.105427357601002e-15, 7.105427357601002e-15) scale(1.1480643099115817)">
            <rect height="100" rx="10" width="100"></rect>
        </g>
        <g class="69brZ8lY3G" fill="#ffffff"
            id="SvgjsG1074"
            light-content="true" transform="translate(22.706546764592655, 22.706199326706777) scale(0.6939333878554578)">
            <path
                d="M24.777 38.979h-6.758A2.021 2.021 0 0 0 15.998 41v41.355c0 1.116.905 2.021 2.021 2.021h40.753a2.021 2.021 0 0 0 2.021-2.021V41a2.021 2.021 0 0 0-2.021-2.021H43.326V28.354H62.77a8.648 8.648 0 0 1 8.648 8.648v49.351a8.648 8.648 0 0 1-8.648 8.648H14.021a8.648 8.648 0 0 1-8.648-8.648V37.002a8.648 8.648 0 0 1 8.648-8.648h10.756v10.625z"></path>
            <path
                d="M75.223 61.021h6.758A2.021 2.021 0 0 0 84.002 59V17.646a2.021 2.021 0 0 0-2.021-2.021H41.228a2.021 2.021 0 0 0-2.021 2.021V59c0 1.116.905 2.021 2.021 2.021h15.446v10.625H37.23a8.648 8.648 0 0 1-8.648-8.648v-49.35A8.648 8.648 0 0 1 37.23 5h48.749a8.648 8.648 0 0 1 8.648 8.648v49.351a8.648 8.648 0 0 1-8.648 8.648H75.223V61.021zM24.777 28.354v10.625h-6.758"></path>
        </g>
        <g class="text" fill="#2248a0"
            id="SvgjsG1075"
            light-content="false" transform="translate(324.37159436375555, 58.95587995961449) scale(1)">
            <path
                d="M-130.45 -32.89L-130.45 -47.74L-176.59 -47.74L-176.59 -32.89L-166.04 -32.89L-166.04 -37.67L-162.11 -37.67L-162.11 -10.06L-166.41 -10.06L-166.41 0L-140.64 0L-140.64 -10.06L-144.93 -10.06L-144.93 -37.67L-141 -37.67L-141 -32.89Z M-93.82 -34.73C-94.56 -34.89 -95.33 -34.98 -96.15 -34.98C-98.24 -34.98 -100.02 -34.51 -101.49 -33.59C-102.96 -32.67 -104.27 -31.35 -105.42 -29.64L-105.42 -34.12L-122.23 -34.12L-122.23 -24.05L-119.53 -24.05L-119.53 -10.06L-122.23 -10.06L-122.23 0L-99.89 0L-99.89 -10.06L-105.42 -10.06L-105.42 -15.4C-105.42 -18.06 -104.72 -20.06 -103.33 -21.41C-101.94 -22.76 -99.95 -23.44 -97.38 -23.44C-95.46 -23.44 -93.66 -23.09 -91.98 -22.4L-91.98 -34.12C-92.47 -34.36 -93.08 -34.57 -93.82 -34.73Z M-48.11 -10.06L-50.81 -10.06L-50.81 -21.41C-50.81 -26.04 -52.11 -29.45 -54.73 -31.66C-57.35 -33.87 -61.71 -34.98 -67.8 -34.98C-70.22 -34.98 -72.69 -34.81 -75.23 -34.48C-77.76 -34.16 -80.12 -33.73 -82.28 -33.2L-82.28 -21.91C-80.52 -22.56 -78.59 -23.08 -76.48 -23.47C-74.38 -23.86 -72.4 -24.05 -70.56 -24.05C-68.31 -24.05 -66.72 -23.8 -65.78 -23.29C-64.84 -22.77 -64.3 -21.82 -64.18 -20.43C-77.31 -20.23 -83.88 -16.26 -83.88 -8.53C-83.88 -5.54 -83 -3.23 -81.24 -1.6C-79.48 0.04 -77.07 0.86 -74 0.86C-71.67 0.86 -69.69 0.35 -68.08 -0.67C-66.46 -1.7 -65.2 -2.86 -64.3 -4.17L-64.3 0L-48.11 0ZM-64.3 -14.36L-64.3 -13.99C-64.3 -12.35 -64.59 -11.09 -65.16 -10.19C-65.74 -9.29 -66.55 -8.84 -67.62 -8.84C-68.4 -8.84 -69 -9.05 -69.43 -9.48C-69.86 -9.91 -70.07 -10.47 -70.07 -11.17C-70.07 -12.31 -69.57 -13.13 -68.57 -13.62C-67.57 -14.11 -66.15 -14.36 -64.3 -14.36Z M-32.64 0L-14.36 0L-6.81 -24.05L-4.23 -24.05L-4.23 -34.12L-22.03 -34.12L-22.03 -24.05L-19.45 -24.05L-22.7 -11.9L-23.32 -11.9L-26.57 -24.05L-23.99 -24.05L-23.99 -34.12L-42.95 -34.12L-42.95 -24.05L-40.37 -24.05Z M3.74 0L45.16 0L45.16 -19.76L31.42 -19.76L31.42 -10.06L23.99 -10.06L23.99 -20.99L29.39 -20.99L29.39 -27.98L23.99 -27.98L23.99 -37.67L31.42 -37.67L31.42 -29.21L45.16 -29.21L45.16 -47.74L3.74 -47.74L3.74 -37.67L6.81 -37.67L6.81 -10.06L3.74 -10.06Z M89.28 -10.06L86.58 -10.06L86.58 -21.41C86.58 -26.04 85.27 -29.45 82.65 -31.66C80.03 -33.87 75.68 -34.98 69.58 -34.98C67.17 -34.98 64.69 -34.81 62.16 -34.48C59.62 -34.16 57.27 -33.73 55.1 -33.2L55.1 -21.91C56.86 -22.56 58.79 -23.08 60.9 -23.47C63.01 -23.86 64.98 -24.05 66.82 -24.05C69.07 -24.05 70.67 -23.8 71.61 -23.29C72.55 -22.77 73.08 -21.82 73.2 -20.43C60.07 -20.23 53.51 -16.26 53.51 -8.53C53.51 -5.54 54.39 -3.23 56.14 -1.6C57.9 0.04 60.32 0.86 63.38 0.86C65.72 0.86 67.69 0.35 69.31 -0.67C70.92 -1.7 72.18 -2.86 73.08 -4.17L73.08 0L89.28 0ZM73.08 -14.36L73.08 -13.99C73.08 -12.35 72.79 -11.09 72.22 -10.19C71.65 -9.29 70.83 -8.84 69.77 -8.84C68.99 -8.84 68.39 -9.05 67.96 -9.48C67.53 -9.91 67.31 -10.47 67.31 -11.17C67.31 -12.31 67.81 -13.13 68.81 -13.62C69.82 -14.11 71.24 -14.36 73.08 -14.36Z M125.91 -34.73C125.17 -34.89 124.4 -34.98 123.58 -34.98C121.49 -34.98 119.71 -34.51 118.24 -33.59C116.77 -32.67 115.46 -31.35 114.31 -29.64L114.31 -34.12L97.5 -34.12L97.5 -24.05L100.2 -24.05L100.2 -10.06L97.5 -10.06L97.5 0L119.84 0L119.84 -10.06L114.31 -10.06L114.31 -15.4C114.31 -18.06 115.01 -20.06 116.4 -21.41C117.79 -22.76 119.77 -23.44 122.35 -23.44C124.27 -23.44 126.07 -23.09 127.75 -22.4L127.75 -34.12C127.26 -34.36 126.65 -34.57 125.91 -34.73Z M176.59 -10.06L173.89 -10.06L173.89 -23.01C173.89 -26.73 173.04 -29.66 171.35 -31.78C169.65 -33.91 167.1 -34.98 163.71 -34.98C159.29 -34.98 155.61 -33.09 152.66 -29.33L152.66 -34.12L135.85 -34.12L135.85 -24.05L138.55 -24.05L138.55 -10.06L135.85 -10.06L135.85 0L155.24 0L155.24 -10.06L152.66 -10.06L152.66 -20.13C152.66 -22.74 153.89 -24.05 156.34 -24.05C157.49 -24.05 158.35 -23.74 158.92 -23.1C159.49 -22.47 159.78 -21.48 159.78 -20.13L159.78 -10.06L157.2 -10.06L157.2 0L176.59 0Z"></path>
        </g>
        <g class="text" fill="#000000"
            id="SvgjsG1076"
            light-content="false" transform="translate(270.5615968051618, 94.38650310399214) scale(1)">
            <path
                d="M-123.03 -17.18L-123.03 0L-118.61 0L-118.61 -5.15L-115.17 -5.15L-112.35 0L-107.56 0L-110.63 -5.4C-109.65 -5.65 -108.93 -6.14 -108.48 -6.9C-108.03 -7.65 -107.81 -8.7 -107.81 -10.06L-107.81 -12.27C-107.81 -13.99 -108.2 -15.24 -108.97 -16.01C-109.75 -16.79 -111 -17.18 -112.72 -17.18ZM-112.23 -12.27L-112.23 -10.06C-112.23 -9.08 -112.72 -8.59 -113.7 -8.59L-118.61 -8.59L-118.61 -13.74L-113.7 -13.74C-112.72 -13.74 -112.23 -13.25 -112.23 -12.27Z M-100.2 -12.52L-106.34 -12.52L-106.34 -9.2L-104.5 -9.2L-104.5 0L-100.2 0ZM-104.5 -17.43L-104.5 -13.99L-100.2 -13.99L-100.2 -17.43Z M-88.54 0L-84.74 0L-84.74 -17.18L-89.03 -17.18L-89.03 -13.01L-94.06 -13.01C-95.29 -13.01 -96.25 -12.66 -96.95 -11.97C-97.64 -11.27 -97.99 -10.31 -97.99 -9.08L-97.99 -3.44C-97.99 -2.32 -97.66 -1.43 -96.99 -0.76C-96.31 -0.09 -95.42 0.25 -94.31 0.25L-93.21 0.25C-92.65 0.25 -91.97 0.13 -91.16 -0.11C-90.35 -0.35 -89.56 -0.72 -88.79 -1.23ZM-91.98 -3.31L-92.84 -3.31C-93.08 -3.31 -93.29 -3.4 -93.45 -3.56C-93.61 -3.72 -93.7 -3.93 -93.7 -4.17L-93.7 -8.71C-93.7 -9.37 -93.37 -9.69 -92.71 -9.69L-89.03 -9.69L-89.03 -3.8C-90.13 -3.48 -91.11 -3.31 -91.98 -3.31Z M-76.88 -12.52L-83.02 -12.52L-83.02 -9.2L-81.18 -9.2L-81.18 0L-76.88 0ZM-81.18 -17.43L-81.18 -13.99L-76.88 -13.99L-76.88 -17.43Z M-67.19 -9.69L-66.33 -9.69C-66.08 -9.69 -65.88 -9.61 -65.72 -9.45C-65.55 -9.29 -65.47 -9.08 -65.47 -8.84L-65.47 0L-61.18 0L-61.18 -9.57C-61.18 -10.68 -61.51 -11.58 -62.18 -12.25C-62.85 -12.92 -63.74 -13.25 -64.86 -13.25L-65.96 -13.25C-66.52 -13.25 -67.2 -13.14 -68.01 -12.9C-68.82 -12.66 -69.61 -12.29 -70.38 -11.78L-70.63 -13.01L-74.43 -13.01L-74.43 0L-70.13 0L-70.13 -9.2C-69.04 -9.53 -68.06 -9.69 -67.19 -9.69Z M-50.5 -0.98L-50.5 0.25C-50.5 0.49 -50.58 0.7 -50.74 0.86C-50.91 1.02 -51.11 1.1 -51.36 1.1C-52.98 1.1 -55.35 0.98 -58.48 0.74L-58.48 3.93C-55.32 4.25 -52.45 4.42 -49.89 4.42C-48.77 4.42 -47.88 4.08 -47.21 3.41C-46.54 2.74 -46.2 1.85 -46.2 0.74L-46.2 -13.01L-55.29 -13.01C-56.51 -13.01 -57.47 -12.66 -58.17 -11.97C-58.86 -11.27 -59.21 -10.31 -59.21 -9.08L-59.21 -4.17C-59.21 -3.06 -58.88 -2.17 -58.21 -1.5C-57.53 -0.83 -56.64 -0.49 -55.53 -0.49L-54.67 -0.49C-53.48 -0.49 -52.09 -0.65 -50.5 -0.98ZM-53.44 -3.8L-54.06 -3.8C-54.3 -3.8 -54.51 -3.89 -54.67 -4.05C-54.84 -4.21 -54.92 -4.42 -54.92 -4.66L-54.92 -8.71C-54.92 -9.37 -54.59 -9.69 -53.94 -9.69L-50.5 -9.69L-50.5 -4.05C-51.43 -3.89 -52.41 -3.8 -53.44 -3.8Z M-30.99 -12.52L-37.12 -12.52L-37.12 -9.2L-35.28 -9.2L-35.28 0L-30.99 0ZM-35.28 -17.43L-35.28 -13.99L-30.99 -13.99L-30.99 -17.43Z M-29.02 -3.44L-29.02 -0.25C-25.7 0.08 -22.59 0.25 -19.7 0.25C-18.58 0.25 -17.69 -0.09 -17.02 -0.76C-16.35 -1.43 -16.01 -2.32 -16.01 -3.44L-16.01 -4.42C-16.01 -5.53 -16.35 -6.42 -17.02 -7.09C-17.69 -7.76 -18.58 -8.1 -19.7 -8.1L-24.11 -8.1C-24.36 -8.1 -24.56 -8.18 -24.73 -8.34C-24.89 -8.51 -24.97 -8.71 -24.97 -8.96C-24.97 -9.2 -24.89 -9.41 -24.73 -9.57C-24.56 -9.74 -24.36 -9.82 -24.11 -9.82L-17.24 -9.82L-17.24 -13.01L-25.59 -13.01C-26.7 -13.01 -27.59 -12.67 -28.26 -12C-28.93 -11.33 -29.27 -10.44 -29.27 -9.33L-29.27 -8.47C-29.27 -7.35 -28.93 -6.46 -28.26 -5.79C-27.59 -5.12 -26.7 -4.79 -25.59 -4.79L-20.31 -4.79L-20.31 -3.93C-20.31 -3.68 -20.39 -3.48 -20.56 -3.31C-20.72 -3.15 -20.92 -3.07 -21.17 -3.07C-23.08 -3.07 -25.7 -3.19 -29.02 -3.44Z M-6.69 -17.18L-6.69 0L-2.27 0L-2.27 -5.15L1.17 -5.15L3.99 0L8.77 0L5.71 -5.4C6.69 -5.65 7.4 -6.14 7.85 -6.9C8.3 -7.65 8.53 -8.7 8.53 -10.06L8.53 -12.27C8.53 -13.99 8.14 -15.24 7.36 -16.01C6.59 -16.79 5.34 -17.18 3.62 -17.18ZM4.11 -12.27L4.11 -10.06C4.11 -9.08 3.62 -8.59 2.64 -8.59L-2.27 -8.59L-2.27 -13.74L2.64 -13.74C3.62 -13.74 4.11 -13.25 4.11 -12.27Z M15.77 -10.19L17.98 -10.19C18.63 -10.19 18.96 -9.86 18.96 -9.2L18.96 -7.85L14.79 -7.85L14.79 -9.2C14.79 -9.86 15.11 -10.19 15.77 -10.19ZM22.76 -0.25L22.76 -3.31C19.64 -3.07 17.27 -2.95 15.65 -2.95C15.4 -2.95 15.2 -3.03 15.03 -3.19C14.87 -3.35 14.79 -3.56 14.79 -3.8L14.79 -4.79L23.26 -4.79L23.26 -9.33C23.26 -10.55 22.91 -11.52 22.21 -12.21C21.52 -12.91 20.56 -13.25 19.33 -13.25L14.42 -13.25C13.19 -13.25 12.23 -12.91 11.54 -12.21C10.84 -11.52 10.49 -10.55 10.49 -9.33L10.49 -3.44C10.49 -2.32 10.83 -1.43 11.5 -0.76C12.17 -0.09 13.06 0.25 14.17 0.25C16.74 0.25 19.61 0.08 22.76 -0.25Z M38.96 -5.15L36.75 -13.01L32.83 -13.01L30.62 -5.15L28.41 -13.01L23.75 -13.01L27.8 0L32.34 0L34.79 -7.85L37.25 0L41.79 0L45.84 -13.01L41.17 -13.01Z M51.48 -3.19L50.87 -3.19C50.62 -3.19 50.42 -3.27 50.25 -3.44C50.09 -3.6 50.01 -3.8 50.01 -4.05L50.01 -4.3C50.01 -4.54 50.09 -4.75 50.25 -4.91C50.42 -5.07 50.62 -5.15 50.87 -5.15L54.43 -5.15L54.43 -3.68C53.33 -3.35 52.35 -3.19 51.48 -3.19ZM46.94 -12.76L46.94 -9.69C47.73 -9.74 48.76 -9.82 50.04 -9.92C51.33 -10.01 52.5 -10.06 53.57 -10.06C53.81 -10.06 54.02 -9.98 54.18 -9.82C54.34 -9.65 54.43 -9.45 54.43 -9.2L54.43 -8.22L49.39 -8.22C48.28 -8.22 47.39 -7.89 46.72 -7.22C46.05 -6.55 45.71 -5.65 45.71 -4.54L45.71 -3.44C45.71 -2.32 46.05 -1.43 46.72 -0.76C47.39 -0.09 48.28 0.25 49.39 0.25L50.25 0.25C50.81 0.25 51.49 0.13 52.3 -0.11C53.11 -0.35 53.9 -0.72 54.67 -1.23L54.92 0L58.72 0L58.72 -9.57C58.72 -10.68 58.39 -11.58 57.71 -12.25C57.04 -12.92 56.15 -13.25 55.04 -13.25C52.63 -13.25 49.93 -13.09 46.94 -12.76Z M68.42 -9.45L70.5 -9.45L70.5 -13.25L69.4 -13.25C67.86 -13.25 66.39 -12.64 64.98 -11.41L64.73 -13.01L60.93 -13.01L60.93 0L65.23 0L65.23 -8.71C66.32 -9.2 67.39 -9.45 68.42 -9.45Z M80.93 0L84.74 0L84.74 -17.18L80.44 -17.18L80.44 -13.01L75.41 -13.01C74.18 -13.01 73.22 -12.66 72.53 -11.97C71.83 -11.27 71.48 -10.31 71.48 -9.08L71.48 -3.44C71.48 -2.32 71.82 -1.43 72.49 -0.76C73.16 -0.09 74.05 0.25 75.17 0.25L76.27 0.25C76.83 0.25 77.51 0.13 78.32 -0.11C79.13 -0.35 79.92 -0.72 80.69 -1.23ZM77.5 -3.31L76.64 -3.31C76.39 -3.31 76.19 -3.4 76.02 -3.56C75.86 -3.72 75.78 -3.93 75.78 -4.17L75.78 -8.71C75.78 -9.37 76.11 -9.69 76.76 -9.69L80.44 -9.69L80.44 -3.8C79.35 -3.48 78.36 -3.31 77.5 -3.31Z M92.59 -12.52L86.46 -12.52L86.46 -9.2L88.3 -9.2L88.3 0L92.59 0ZM88.3 -17.43L88.3 -13.99L92.59 -13.99L92.59 -17.43Z M102.29 -9.69L103.15 -9.69C103.39 -9.69 103.6 -9.61 103.76 -9.45C103.92 -9.29 104 -9.08 104 -8.84L104 0L108.3 0L108.3 -9.57C108.3 -10.68 107.96 -11.58 107.29 -12.25C106.62 -12.92 105.73 -13.25 104.62 -13.25L103.51 -13.25C102.96 -13.25 102.27 -13.14 101.46 -12.9C100.65 -12.66 99.86 -12.29 99.1 -11.78L98.85 -13.01L95.05 -13.01L95.05 0L99.34 0L99.34 -9.2C100.44 -9.53 101.42 -9.69 102.29 -9.69Z M118.98 -0.98L118.98 0.25C118.98 0.49 118.89 0.7 118.73 0.86C118.57 1.02 118.36 1.1 118.12 1.1C116.5 1.1 114.12 0.98 111 0.74L111 3.93C114.16 4.25 117.02 4.42 119.59 4.42C120.7 4.42 121.59 4.08 122.27 3.41C122.94 2.74 123.27 1.85 123.27 0.74L123.27 -13.01L114.19 -13.01C112.96 -13.01 112 -12.66 111.31 -11.97C110.61 -11.27 110.26 -10.31 110.26 -9.08L110.26 -4.17C110.26 -3.06 110.6 -2.17 111.27 -1.5C111.94 -0.83 112.83 -0.49 113.94 -0.49L114.8 -0.49C116 -0.49 117.39 -0.65 118.98 -0.98ZM116.03 -3.8L115.42 -3.8C115.17 -3.8 114.97 -3.89 114.8 -4.05C114.64 -4.21 114.56 -4.42 114.56 -4.66L114.56 -8.71C114.56 -9.37 114.89 -9.69 115.54 -9.69L118.98 -9.69L118.98 -4.05C118.04 -3.89 117.06 -3.8 116.03 -3.8Z"></path>
        </g>
        <rect fill="#000000" height="2.045322939669171" id="SvgjsRect1077"
            light-content="false" transform="translate(404.0560011191723, 86.85586582681515) scale(1)"
            width="57.94399888082764"></rect>
    </g>
</svg>